<?xml version="1.0" encoding="utf-8"?>
<!-- Generator: Adobe Illustrator 19.2.0, SVG Export Plug-In . SVG Version: 6.00 Build 0)  -->
<svg version="1.1" id="Layer_1" xmlns="http://www.w3.org/2000/svg" xmlns:xlink="http://www.w3.org/1999/xlink" x="0px" y="0px"
	 viewBox="0 0 420.3 58.1" style="enable-background:new 0 0 420.3 58.1;" xml:space="preserve">
<g>
	<polygon points="17,3.9 3.5,3.9 3.5,53.5 40.9,53.5 40.9,41.1 17,41.1 	"/>
	<path d="M68.9,21.6c-2.1-2.4-5.1-4.1-9.5-4.1c-9.4,0-16,8.3-16,18.5c0,10.2,6.6,18.5,16,18.5c4.4,0,7.5-1.7,9.6-4v3.1h12.1V18.4
		H68.9V21.6z M62.6,42.7c-3.6,0-6.2-2.8-6.2-6.8c0-3.9,2.6-6.8,6.2-6.8c3.6,0,6.2,2.8,6.2,6.8C68.9,39.9,66.3,42.7,62.6,42.7z"/>
	<path d="M107.5,31l-2.1-0.4c-3.2-0.5-5.6-0.6-5.6-1.9c0-0.8,0.6-1.3,3-1.3c3.2,0,7.8,1.1,11.8,2.6l3-9.8c-6.6-2.2-9.7-2.7-15.4-2.7
		c-9.8,0-15.4,4.2-15.4,12c0,6.5,3.9,10,12.6,11.3l1.4,0.2c3.9,0.6,5.3,0.8,5.3,1.9c0,1-0.9,1.5-3.6,1.5c-4.5,0-8.8-1.1-12.7-3.2
		l-4,9.8c3.5,2.1,9.7,3.4,16.7,3.4c10.3,0,16.3-4.6,16.3-12.7C118.7,35.9,115,32.2,107.5,31z"/>
	<path d="M144.8,17.5c-4,0-6.9,1.2-8.9,3.7V2.5h-12.6v51.1h12.6V34.7c0-3.9,1.9-5.5,4.4-5.5c2.8,0,4.4,1.9,4.4,5.4v18.9h12.6V30.7
		C157.4,22.6,152.1,17.5,144.8,17.5z"/>
	<path d="M187.3,21.6c-2.1-2.4-5.1-4.1-9.5-4.1c-9.4,0-16,8.3-16,18.5c0,10.2,6.6,18.5,16,18.5c4.4,0,7.5-1.7,9.6-4v3.1h12.1V18.4
		h-12.1V21.6z M181,42.7c-3.6,0-6.2-2.8-6.2-6.8c0-3.9,2.6-6.8,6.2-6.8s6.2,2.8,6.2,6.8C187.2,39.9,184.6,42.7,181,42.7z"/>
	<path d="M217.6,22v-3.5h-12v35.1h12.6V34.7c0-3.9,2.1-5.1,5.6-5.1c2,0,4.1,0.4,5.5,0.8l0.7-12.6c-0.5-0.1-1.8-0.4-3.2-0.4
		C222.6,17.5,219.5,18.9,217.6,22z"/>
	<path d="M250,17.5c-10.8,0-18.2,7.7-18.2,18.8c0,10.9,7.5,18.2,18.7,18.2c6.9,0,12.5-2.4,15.9-6.1l-8.6-7.2
		c-1.9,1.9-4.4,2.8-6.6,2.8c-3.3,0-5.5-1.4-6.3-4.2h22.9c0.1-0.7,0.2-2.5,0.2-3.8C267.9,25,260.6,17.5,250,17.5z M244.8,32.1
		c0.8-2.7,2.5-4,5.2-4c2.6,0,4.4,1.3,5.3,4H244.8z"/>
	<rect x="272.5" y="2.5" width="12.6" height="51"/>
	<path d="M315.2,21.6c-2.1-2.4-5.1-4.1-9.5-4.1c-9.4,0-16,8.3-16,18.5c0,10.2,6.6,18.5,16,18.5c4.4,0,7.5-1.7,9.6-4v3.1h12.1V18.4
		h-12.1V21.6z M308.9,42.7c-3.6,0-6.2-2.8-6.2-6.8c0-3.9,2.6-6.8,6.2-6.8s6.2,2.8,6.2,6.8C315.1,39.9,312.5,42.7,308.9,42.7z"/>
	<polygon points="333,42.6 336,42.6 336.7,36 334.5,36 	"/>
	<path d="M344.4,46.5l-1.2-0.2c-1.1-0.2-1.9-0.4-1.9-1.2c0-0.8,0.8-1.4,2.2-1.4c1.4,0,2.9,0.6,3.6,1l1.1-2c-1.2-0.8-2.9-1.2-4.7-1.2
		c-3,0-4.8,1.4-4.8,3.7c0,1.9,1.4,3,3.9,3.4l1.2,0.2c1.4,0.2,2,0.6,2,1.3c0,0.9-0.9,1.4-2.6,1.4c-1.9,0-3-0.5-3.8-1.2l-1.2,1.9
		c1.7,1.3,3.8,1.5,5,1.5c3.3,0,5.3-1.6,5.3-3.8C348.4,48,346.9,46.9,344.4,46.5z"/>
	<path d="M364,41.6c-1.6,0-2.8,0.7-3.6,1.7V36h-2.5v17.4h2.5v-1.4c0.8,1,2,1.7,3.6,1.7c3.2,0,5.8-2.6,5.8-6.1S367.3,41.6,364,41.6z
		 M363.7,51.4c-2.1,0-3.5-1.6-3.5-3.7s1.4-3.7,3.5-3.7c2.2,0,3.5,1.7,3.5,3.7S365.9,51.4,363.7,51.4z"/>
	<rect x="373" y="36" width="2.5" height="17.4"/>
	<path d="M384.9,41.6c-3.6,0-6.2,2.6-6.2,6.1s2.7,6.1,6.2,6.1c3.6,0,6.2-2.6,6.2-6.1S388.5,41.6,384.9,41.6z M384.9,51.4
		c-2.1,0-3.6-1.5-3.6-3.7c0-2.2,1.6-3.7,3.6-3.7s3.6,1.5,3.6,3.7C388.5,49.9,386.9,51.4,384.9,51.4z"/>
	<path d="M402.6,43.3c-0.9-1.1-2.2-1.7-3.9-1.7c-2.7,0-5.4,2.2-5.4,6s2.7,6,5.4,6c1.7,0,3-0.6,3.9-1.7v0.9c0,2.2-1.3,3.5-3.7,3.5
		c-1.4,0-2.8-0.5-3.9-1.2l-0.9,2.1c1.2,0.9,3.1,1.3,4.9,1.3c3.9,0,6.2-2.2,6.2-5.9V41.9h-2.5V43.3z M399.4,51.1
		c-2.1,0-3.4-1.6-3.4-3.6c0-2,1.3-3.6,3.4-3.6c2,0,3.4,1.6,3.4,3.6S401.5,51.1,399.4,51.1z"/>
	<path d="M414.4,46.5l-1.2-0.2c-1.1-0.2-1.9-0.4-1.9-1.2c0-0.8,0.8-1.4,2.2-1.4c1.4,0,2.9,0.6,3.6,1l1.1-2c-1.2-0.8-2.9-1.2-4.7-1.2
		c-3,0-4.8,1.4-4.8,3.7c0,1.9,1.4,3,3.9,3.4l1.2,0.2c1.4,0.2,2,0.6,2,1.3c0,0.9-0.9,1.4-2.6,1.4c-1.9,0-3-0.5-3.8-1.2l-1.2,1.9
		c1.7,1.3,3.8,1.5,5,1.5c3.3,0,5.3-1.6,5.3-3.8C418.4,48,416.9,46.9,414.4,46.5z"/>
</g>
</svg>
