<?xml version="1.0" standalone="no"?>
<!DOCTYPE svg PUBLIC "-//W3C//DTD SVG 20010904//EN"
 "http://www.w3.org/TR/2001/REC-SVG-20010904/DTD/svg10.dtd">
<svg version="1.0" xmlns="http://www.w3.org/2000/svg"
 width="466.000000pt" height="466.000000pt" viewBox="0 0 466.000000 466.000000"
 preserveAspectRatio="xMidYMid meet">
<metadata>
Created by potrace 1.11, written by Peter Selinger 2001-2013
</metadata>
<g transform="translate(0.000000,466.000000) scale(0.100000,-0.100000)"
fill="#000000" stroke="none">
<path d="M1773 4092 c-28 -59 -113 -233 -188 -387 -76 -154 -165 -338 -200
-410 -34 -71 -120 -247 -190 -390 -70 -143 -169 -345 -220 -450 -233 -478
-304 -625 -405 -830 -151 -310 -283 -579 -390 -800 -51 -104 -112 -229 -136
-277 l-44 -88 393 0 394 0 83 173 c46 94 147 303 225 462 175 356 309 631 430
880 132 272 266 547 390 800 178 363 287 589 389 800 53 110 101 209 108 220
15 26 64 125 118 240 23 50 51 107 61 128 l19 37 -392 0 -393 0 -52 -108z"/>
<path d="M2883 2836 l0 -352 61 -26 c34 -14 185 -76 336 -138 151 -61 289
-118 305 -125 17 -7 104 -43 195 -80 91 -37 174 -72 184 -77 16 -9 -20 -26
-200 -99 -120 -49 -244 -100 -274 -113 -30 -13 -179 -74 -331 -136 l-276 -112
0 -353 0 -353 41 18 c50 21 129 57 216 98 36 16 90 41 120 55 30 14 91 42 135
62 105 49 761 352 930 430 39 17 95 43 125 58 30 14 89 41 131 60 l76 35 0
342 0 342 -71 33 c-39 18 -96 44 -126 58 -118 54 -189 86 -275 127 -82 38
-611 282 -795 367 -41 19 -97 45 -125 58 -27 13 -86 40 -130 60 -44 21 -109
51 -145 67 -36 17 -74 34 -86 38 l-21 8 0 -352z"/>
</g>
</svg>
